
<svg width="174" height="50" version="1.1" id="Layer_1" xmlns="http://www.w3.org/2000/svg"
	 viewBox="0 0 1894.5 822.3">
<g fill="#fb9c23">
	<g>
		<path d="M438.6,757.9c-179.1,0-324.9-145.7-324.9-324.9s145.7-324.9,324.9-324.9c17.4,0,31.5,14.1,31.5,31.5s-14.1,31.5-31.5,31.5
			c-144.4,0-261.8,117.4-261.8,261.8c0,144.4,117.4,261.8,261.8,261.8c44.3,0,88-11.2,126.5-32.5c15.2-8.4,34.4-2.9,42.8,12.3
			c8.4,15.2,2.9,34.4-12.3,42.8C547.8,744,493.5,757.9,438.6,757.9z"/>
	</g>
	<g>
		<path d="M250.5,813.8c-4.9,0-9.8-1.1-14.5-3.5C94.5,736.9,6.6,592.4,6.6,433.1C6.6,199,197,8.5,431.1,8.5
			c91,0,177.7,28.3,250.8,82c14,10.3,17.1,30,6.8,44.1c-10.3,14-30,17.1-44.1,6.8c-62.3-45.6-136.1-69.8-213.5-69.8
			c-199.3,0-361.5,162.2-361.5,361.5c0,135.6,74.9,258.7,195.4,321.2c15.5,8,21.5,27,13.5,42.5C272.9,807.6,261.9,813.8,250.5,813.8
			z"/>
	</g>
	<g>
		<path d="M431.1,630.6c-108.9,0-197.5-88.6-197.5-197.5s88.6-197.5,197.5-197.5c52.8,0,102.3,20.5,139.6,57.8
			c12.3,12.3,12.3,32.3,0,44.6c-12.3,12.3-32.3,12.3-44.6,0c-25.4-25.4-59.1-39.4-95.1-39.4c-74.1,0-134.4,60.3-134.4,134.4
			S357,567.5,431.1,567.5c22.7,0,45.2-5.8,64.9-16.7c12.1-6.7,23.1-15.2,32.6-25.3c12-12.6,31.9-13.2,44.6-1.2
			c12.6,12,13.2,31.9,1.2,44.6c-14,14.8-30.1,27.2-47.9,37.1C497.5,622.1,464.5,630.6,431.1,630.6z"/>
	</g>
	<g>
		<path d="M250.5,813.8c-4.9,0-9.8-1.1-14.5-3.5C94.5,736.9,6.6,592.4,6.6,433.1C6.6,199,197,8.5,431.1,8.5
			c91,0,177.7,28.3,250.8,82c14,10.3,17.1,30,6.8,44.1c-10.3,14-30,17.1-44.1,6.8c-62.3-45.6-136.1-69.8-213.5-69.8
			c-199.3,0-361.5,162.2-361.5,361.5c0,135.6,74.9,258.7,195.4,321.2c15.5,8,21.5,27,13.5,42.5C272.9,807.6,261.9,813.8,250.5,813.8
			z"/>
	</g>
	<g>
		<path d="M616.6,597.7V271.7c0-17.9,14.5-32.4,32.4-32.4c17.9,0,32.4,14.5,32.4,32.4v326.1c0,17.9-14.5,32.4-32.4,32.4
			C631.1,630.1,616.6,615.6,616.6,597.7z"/>
		<path d="M959.9,616.2L791.3,375v222.8c0,17.9-15.1,32.4-32.9,32.4c-17.9,0-32.4-14.5-32.4-32.4V271.7c0-16.8,13.4-32.4,32.9-32.4
			c10,0,20.1,5,26.2,14l168.6,241.2V271.7c0-17.9,14.5-32.4,32.9-32.4c17.9,0,32.4,14.5,32.4,32.4v326.1c0,17.3-14.5,32.4-32.4,32.4
			C976.1,630.1,966.1,625.1,959.9,616.2z"/>
		<path d="M1308.3,597.7c0,17.9-14.5,32.4-32.9,32.4h-178.7c-18.4,0-32.9-14.5-32.9-32.4V271.7c0-17.9,14.5-32.4,32.9-32.4h178.7
			c18.4,0,32.9,14.5,32.9,32.4c0,18.4-14.5,32.9-32.9,32.9h-146.3v97.7H1243c17.9,0,32.4,14.5,32.4,32.4c0,17.9-14.5,32.4-32.4,32.4
			h-113.9v97.7h146.3C1293.8,564.8,1308.3,579.3,1308.3,597.7z"/>
		<path d="M1598.7,500v5.6c0,32.4-12.8,63.1-35.2,85.4c-24.6,24.6-58.1,38-94.9,38h-4.5c-47.5-1.7-88.8-28.5-108.3-70.4
			c-2.2-4.5-2.8-9.5-2.8-14c0-12.3,6.7-24,19-29.6c4.5-2.2,8.9-2.8,13.4-2.8c12.3,0,24.6,6.7,30.1,19c8.9,19.5,27.9,31.8,50.8,32.4
			h2.8c19.5,0,35.7-6.1,47.5-17.9c11.2-11.2,17.3-25.1,17.3-40.2v-2.2c-1.7-25.7-50.3-48.6-71.5-54.7l-2.2-1.1
			c-57.5-20.7-86.5-56.9-86.5-107.2v-4.5c1.1-28.5,14-54.2,38-72c20.1-15.6,47.4-25.1,76.5-25.1h5c23.5,0.6,47.5,10.1,67,24.6
			c8.4,6.7,12.8,16.2,12.8,25.7c0,6.7-2.2,14-6.7,19.5c-6.7,8.4-16.2,12.8-26.2,12.8c-6.7,0-13.4-1.7-19.5-6.1
			c-8.4-6.7-19.5-10.6-29.6-11.2h-3.3c-27.4,0-48.6,14-49.1,34.1v2.2c0,27.4,21.2,37.4,43,46.3C1498.2,391.7,1595.3,423,1598.7,500z
			"/>
		<path d="M1887.9,597.7c0,17.9-14.5,32.4-32.9,32.4h-178.7c-18.4,0-32.9-14.5-32.9-32.4V271.7c0-17.9,14.5-32.4,32.9-32.4H1855
			c18.4,0,32.9,14.5,32.9,32.4c0,18.4-14.5,32.9-32.9,32.9h-146.3v97.7h113.9c17.9,0,32.4,14.5,32.4,32.4
			c0,17.9-14.5,32.4-32.4,32.4h-113.9v97.7H1855C1873.4,564.8,1887.9,579.3,1887.9,597.7z"/>
	</g>
	<g>
		<path d="M1332.3,742.7c0,35.4-29.4,64.5-65.1,64.5h-37.6V678.1h37.6C1302.5,678.1,1332.3,706.6,1332.3,742.7z M1315.7,742.7
			c0-26.6-20.1-49.7-48.5-49.7h-21.4v99.4h21.4C1293.8,792.4,1315.7,770.8,1315.7,742.7z"/>
		<path d="M1350.2,678h16.1v129.2h-16.1V678z"/>
		<path d="M1515.5,729.1c1.1,4.3,1.5,8.8,1.5,13.5c0,35.3-28.8,64.6-65.5,64.6c-35.3,0-65.4-27.9-65.4-64.6
			c0-35.5,28.7-64.6,65.4-64.6c13.9,0,26.9,4,38.2,11.7l-9.6,12.2c-8.5-6-17.9-9-28.6-9c-27,0-48.8,21.6-48.8,49.7
			c0,26.7,20.7,49.8,48.8,49.8c25.4,0,46.3-19.1,48.3-45c0.2-1.1,0.3-2.2,0.3-3.2h-48.5v-15H1515.5z"/>
		<path d="M1533.8,678h16.1v129.2h-16.1V678z"/>
		<path d="M1678.5,678v15h-47.9v114.1h-16.1V693.1h-47.8v-15H1678.5z"/>
		<path d="M1724.9,678l51.5,129.2h-16.1l-9.7-24.3H1683l-9.7,24.3h-16.1l51.5-129.2H1724.9z M1688.9,768h55.8l-27.9-70.8L1688.9,768
			z"/>
		<path d="M1808.4,678v114.1h69.3v15h-85.4V678H1808.4z"/>
	</g>
</g>
</svg>